<!-- <svg xmlns="http://www.w3.org/2000/svg" viewBox="0 0 376.72 376.72"><defs><style>.cls-1{fill:#fff;}</style></defs><g id="Layer_2" data-name="Layer 2"><g id="Layer_1-2" data-name="Layer 1"><rect width="376.72" height="376.72" rx="70.82"/><path class="cls-1" d="M261.81,240.21A78.14,78.14,0,0,0,144.23,148V97.82s0,0,0,0V97a16.73,16.73,0,0,0-16.73-16.73h0a4.25,4.25,0,0,0-.86.06,16.63,16.63,0,0,0-15.8,15.8,6.56,6.56,0,0,0,0,.87l0,52.61h0v62.2c0,.66,0,1.31,0,2a73.8,73.8,0,0,0,1.2,12.16v0a78.13,78.13,0,0,0,124.41,48.2l42.11,5Zm-72.12,16.9a45.35,45.35,0,1,1,0-90.7c.81,0,1.63,0,2.45.09A45.32,45.32,0,0,1,235,210.73a9.22,9.22,0,0,1,0,1.06A45.16,45.16,0,0,1,231,230.61l8.7,20.31-22.94-2.73A45.19,45.19,0,0,1,189.69,257.11Z"/></g></g></svg> -->


<svg xmlns="http://www.w3.org/2000/svg" viewBox="0 0 1131.08 376.72"><defs><style>.cls-1{fill:#fff;}</style></defs><g id="Layer_2" data-name="Layer 2"><g id="Layer_1-2" data-name="Layer 1"><rect width="376.72" height="376.72" rx="70.82"/><path class="cls-1" d="M261.81,240.21A78.14,78.14,0,0,0,144.23,148V97.82s0,0,0,0V97a16.73,16.73,0,0,0-16.73-16.73h0a4.25,4.25,0,0,0-.86.06,16.63,16.63,0,0,0-15.8,15.8,6.56,6.56,0,0,0,0,.87l0,52.61h0v62.2c0,.66,0,1.31,0,2a73.8,73.8,0,0,0,1.2,12.16v0a78.13,78.13,0,0,0,124.41,48.2l42.11,5Zm-72.12,16.9a45.35,45.35,0,1,1,0-90.7c.81,0,1.63,0,2.45.09A45.32,45.32,0,0,1,235,210.73a9.22,9.22,0,0,1,0,1.06A45.16,45.16,0,0,1,231,230.61l8.7,20.31-22.94-2.73A45.19,45.19,0,0,1,189.69,257.11Z"/><path d="M590.25,204.61a52.78,52.78,0,0,1,11.12,33q0,27.42-18.89,43t-53,15.53H427.68a4.49,4.49,0,0,1-4.49-4.49V85.9a4.5,4.5,0,0,1,4.49-4.5h98.45Q559,81.4,577.76,96t18.73,41.12q0,18.88-9.9,31.53a49.24,49.24,0,0,1-26.34,17.21Q579.12,190.14,590.25,204.61ZM482.88,162.19a4.49,4.49,0,0,0,4.5,4.5H513q22.53,0,22.54-18.58,0-19.2-22.54-19.19H487.38a4.49,4.49,0,0,0-4.5,4.49Zm57.26,66.94q0-9.75-5.93-14.93T517.3,209H487.38a4.49,4.49,0,0,0-4.5,4.5v30a4.49,4.49,0,0,0,4.5,4.49h30.23Q540.14,248,540.14,229.13Z"/><path d="M815.83,131.2a103.6,103.6,0,0,0-39.74-39.14q-25.14-14-55.59-14a112.43,112.43,0,0,0-55.43,14A104.43,104.43,0,0,0,625,131.2q-14.78,25.13-14.77,56.8T625,244.81a105.53,105.53,0,0,0,40.06,39.29,115.57,115.57,0,0,0,110.86,0,104.34,104.34,0,0,0,39.9-39.29q14.63-25.12,14.62-56.81T815.83,131.2ZM750.25,233.78q-12,9.06-29.75,9.05-21.06,0-33.8-12.23a55,55,0,1,1,63.55,3.18Z"/><path d="M1131,88.07l-49.89,203.29a4,4,0,0,1-3.85,3H1011.3a4,4,0,0,1-3.87-3.09L979.06,165,950.11,291.3a4,4,0,0,1-3.87,3.08H880.31a4,4,0,0,1-3.85-3L827.15,88.06A4,4,0,0,1,831,83.15h55.13A4,4,0,0,1,890,86.46l24,141.11L946.6,86.23a4,4,0,0,1,3.86-3.08h58.09a4,4,0,0,1,3.87,3.1l31.66,140.12,24-139.92a4,4,0,0,1,3.91-3.3h55.12A4,4,0,0,1,1131,88.07Z"/></g></g></svg>