<svg xmlns="http://www.w3.org/2000/svg" viewBox="0 0 505 504"><defs><style>.cls-1{fill:#e2dcf9;}.cls-2,.cls-4{fill:#fff;}.cls-2{stroke:#b398ed;stroke-miterlimit:10;stroke-width:2px;}.cls-3{fill:#814ef2;}</style></defs><g id="Layer_2" data-name="Layer 2"><g id="Layer_1-2" data-name="Layer 1"><path class="cls-1" d="M262.43,18.31S-131.79,135.74,46.12,330.07s465.56,264.22,458.76,6.28S493.28-50.42,262.43,18.31Z"/><path class="cls-2" d="M300,125.27v82.91A24.77,24.77,0,0,1,275.25,233H21.86a7.82,7.82,0,0,1-6.68-11.87l17.21-28.48V125.27a24.77,24.77,0,0,1,24.75-24.8H275.25A24.77,24.77,0,0,1,300,125.27Z"/><path class="cls-3" d="M83.06,109.59A40.78,40.78,0,1,1,42.29,68.72,40.81,40.81,0,0,1,83.06,109.59Z"/><ellipse class="cls-4" cx="41.99" cy="100.47" rx="12.18" ry="12.2"/><path class="cls-4" d="M65.35,138.73a23.3,23.3,0,0,1-.52,4.91A40.69,40.69,0,0,1,19,143.17a24,24,0,0,1-.42-4.44,23.37,23.37,0,1,1,46.73,0Z"/><path class="cls-2" d="M205.6,287.59v82.92a24.77,24.77,0,0,0,24.75,24.8h253.4a7.82,7.82,0,0,0,6.67-11.87L473.22,355V287.59a24.77,24.77,0,0,0-24.75-24.8H230.35A24.77,24.77,0,0,0,205.6,287.59Z"/><path class="cls-3" d="M504.7,269.23a40.78,40.78,0,1,1-40.77-40.87A40.84,40.84,0,0,1,504.7,269.23Z"/><ellipse class="cls-4" cx="463.63" cy="260.1" rx="12.18" ry="12.2"/><path class="cls-4" d="M487,298.36a22.82,22.82,0,0,1-.52,4.92,40.7,40.7,0,0,1-45.78-.48,23.37,23.37,0,1,1,46.3-4.44Z"/></g></g></svg>